<?xml version="1.0" encoding="UTF-8" standalone="no"?><svg xmlns="http://www.w3.org/2000/svg" xmlns:xlink="http://www.w3.org/1999/xlink" contentStyleType="text/css" height="456px" preserveAspectRatio="none" style="width:850px;height:456px;background:#FFFFFF;" version="1.1" viewBox="0 0 850 456" width="850px" zoomAndPan="magnify"><defs/><g><!--class etablissement--><g id="elem_etablissement"><rect codeLine="6" fill="#FFFFFF" height="265.1904" id="etablissement" rx="2.5" ry="2.5" style="stroke:#000000;stroke-width:1.0;" width="329" x="12" y="12"/><ellipse cx="124.25" cy="26" fill="#FFFFFF" rx="9" ry="9" style="stroke:#000000;stroke-width:1.0;"/><path d="M127.0156,21.875 Q127.1719,21.6563 127.3594,21.5469 Q127.5469,21.4375 127.7656,21.4375 Q128.1406,21.4375 128.375,21.7031 Q128.6094,21.9531 128.6094,22.5625 L128.6094,24.0156 Q128.6094,24.625 128.375,24.8906 Q128.1406,25.1563 127.7656,25.1563 Q127.4219,25.1563 127.2188,24.9531 Q127.0156,24.7656 126.9063,24.25 Q126.8594,23.8906 126.6719,23.7031 Q126.3438,23.3281 125.7344,23.1094 Q125.125,22.8906 124.5,22.8906 Q123.7344,22.8906 123.0938,23.2188 Q122.4688,23.5469 121.9688,24.2969 Q121.4844,25.0469 121.4844,26.0781 L121.4844,27.1719 Q121.4844,28.4063 122.375,29.2344 Q123.2656,30.0469 124.8594,30.0469 Q125.7969,30.0469 126.4531,29.7969 Q126.8438,29.6406 127.2656,29.2031 Q127.5313,28.9375 127.6719,28.8594 Q127.8281,28.7813 128.0313,28.7813 Q128.3594,28.7813 128.6094,29.0469 Q128.875,29.2969 128.875,29.6406 Q128.875,29.9844 128.5313,30.3906 Q128.0313,30.9688 127.2344,31.2969 Q126.1563,31.75 124.8594,31.75 Q123.3438,31.75 122.1406,31.125 Q121.1563,30.625 120.4688,29.5625 Q119.7813,28.4844 119.7813,27.2031 L119.7813,26.0469 Q119.7813,24.7188 120.3906,23.5781 Q121.0156,22.4219 122.1094,21.8125 Q123.2031,21.1875 124.4375,21.1875 Q125.1719,21.1875 125.8125,21.3594 Q126.4688,21.5156 127.0156,21.875 Z " fill="#000000"/><text fill="#000000" font-family="Verdana" font-size="14" lengthAdjust="spacing" textLength="97" x="141.75" y="31.5679">etablissement</text><line style="stroke:#000000;stroke-width:1.0;" x1="13" x2="340" y1="40" y2="40"/><line style="stroke:#000000;stroke-width:1.0;" x1="13" x2="340" y1="48" y2="48"/><text fill="#000000" font-family="Verdana" font-size="14" lengthAdjust="spacing" textLength="249" x="18" y="66.0752">nomRueEtablissement: varchar(60)</text><text fill="#000000" font-family="Verdana" font-size="14" lengthAdjust="spacing" textLength="272" x="18" y="83.0898">numeroRueEtablissement: varchar(10)</text><text fill="#000000" font-family="Verdana" font-size="14" lengthAdjust="spacing" textLength="274" x="18" y="100.1045">codePostaleEtablissement: varchar(15)</text><text fill="#000000" font-family="Verdana" font-size="14" lengthAdjust="spacing" textLength="216" x="18" y="117.1191">villeEtablissement: varchar(60)</text><text fill="#000000" font-family="Verdana" font-size="14" lengthAdjust="spacing" textLength="317" x="18" y="134.1338">numeroTelephoneEtablissement: varchar(20)</text><text fill="#000000" font-family="Verdana" font-size="14" lengthAdjust="spacing" textLength="235" x="18" y="151.1484">emailEtablissement: varchar(120)</text><text fill="#000000" font-family="Verdana" font-size="14" lengthAdjust="spacing" textLength="218" x="18" y="168.1631">urlEtablissement: varchar(120)</text><text fill="#000000" font-family="Verdana" font-size="14" lengthAdjust="spacing" textLength="190" x="18" y="185.1777">codeHexa6eme: varchar(7)</text><text fill="#000000" font-family="Verdana" font-size="14" lengthAdjust="spacing" textLength="190" x="18" y="202.1924">codeHexa5eme: varchar(7)</text><text fill="#000000" font-family="Verdana" font-size="14" lengthAdjust="spacing" textLength="190" x="18" y="219.207">codeHexa4eme: varchar(7)</text><text fill="#000000" font-family="Verdana" font-size="14" lengthAdjust="spacing" textLength="190" x="18" y="236.2217">codeHexa3eme: varchar(7)</text><text fill="#000000" font-family="Verdana" font-size="14" lengthAdjust="spacing" textLength="132" x="18" y="253.2363">bordure: tinyint(1)</text><text fill="#000000" font-family="Verdana" font-size="14" lengthAdjust="spacing" textLength="222" x="18" y="270.251">nomEtablissement: varchar(50)</text></g><!--class logAction--><g id="elem_logAction"><rect codeLine="21" fill="#FFFFFF" height="112.0586" id="logAction" rx="2.5" ry="2.5" style="stroke:#000000;stroke-width:1.0;" width="206" x="376.5" y="88.5"/><ellipse cx="443.25" cy="102.5" fill="#FFFFFF" rx="9" ry="9" style="stroke:#000000;stroke-width:1.0;"/><path d="M446.0156,98.375 Q446.1719,98.1563 446.3594,98.0469 Q446.5469,97.9375 446.7656,97.9375 Q447.1406,97.9375 447.375,98.2031 Q447.6094,98.4531 447.6094,99.0625 L447.6094,100.5156 Q447.6094,101.125 447.375,101.3906 Q447.1406,101.6563 446.7656,101.6563 Q446.4219,101.6563 446.2188,101.4531 Q446.0156,101.2656 445.9063,100.75 Q445.8594,100.3906 445.6719,100.2031 Q445.3438,99.8281 444.7344,99.6094 Q444.125,99.3906 443.5,99.3906 Q442.7344,99.3906 442.0938,99.7188 Q441.4688,100.0469 440.9688,100.7969 Q440.4844,101.5469 440.4844,102.5781 L440.4844,103.6719 Q440.4844,104.9063 441.375,105.7344 Q442.2656,106.5469 443.8594,106.5469 Q444.7969,106.5469 445.4531,106.2969 Q445.8438,106.1406 446.2656,105.7031 Q446.5313,105.4375 446.6719,105.3594 Q446.8281,105.2813 447.0313,105.2813 Q447.3594,105.2813 447.6094,105.5469 Q447.875,105.7969 447.875,106.1406 Q447.875,106.4844 447.5313,106.8906 Q447.0313,107.4688 446.2344,107.7969 Q445.1563,108.25 443.8594,108.25 Q442.3438,108.25 441.1406,107.625 Q440.1563,107.125 439.4688,106.0625 Q438.7813,104.9844 438.7813,103.7031 L438.7813,102.5469 Q438.7813,101.2188 439.3906,100.0781 Q440.0156,98.9219 441.1094,98.3125 Q442.2031,97.6875 443.4375,97.6875 Q444.1719,97.6875 444.8125,97.8594 Q445.4688,98.0156 446.0156,98.375 Z " fill="#000000"/><text fill="#000000" font-family="Verdana" font-size="14" lengthAdjust="spacing" textLength="65" x="460.75" y="108.0679">logAction</text><line style="stroke:#000000;stroke-width:1.0;" x1="377.5" x2="581.5" y1="116.5" y2="116.5"/><text fill="#000000" font-family="Verdana" font-size="14" lengthAdjust="spacing" textLength="147" x="382.5" y="134.5752">dateAction: datetime</text><line style="stroke:#000000;stroke-width:1.0;" x1="377.5" x2="581.5" y1="141.5146" y2="141.5146"/><text fill="#000000" font-family="Verdana" font-size="14" lengthAdjust="spacing" textLength="144" x="382.5" y="159.5898">action: varchar(300)</text><text fill="#000000" font-family="Verdana" font-size="14" lengthAdjust="spacing" textLength="136" x="382.5" y="176.6045">adMac: varchar(20)</text><text fill="#000000" font-family="Verdana" font-size="14" lengthAdjust="spacing" textLength="194" x="382.5" y="193.6191">nomUtilisateur: varchar(20)</text></g><!--class logMotDePasse--><g id="elem_logMotDePasse"><rect codeLine="27" fill="#FFFFFF" height="95.0439" id="logMotDePasse" rx="2.5" ry="2.5" style="stroke:#000000;stroke-width:1.0;" width="226" x="617.5" y="97"/><ellipse cx="673.75" cy="111" fill="#FFFFFF" rx="9" ry="9" style="stroke:#000000;stroke-width:1.0;"/><path d="M676.5156,106.875 Q676.6719,106.6563 676.8594,106.5469 Q677.0469,106.4375 677.2656,106.4375 Q677.6406,106.4375 677.875,106.7031 Q678.1094,106.9531 678.1094,107.5625 L678.1094,109.0156 Q678.1094,109.625 677.875,109.8906 Q677.6406,110.1563 677.2656,110.1563 Q676.9219,110.1563 676.7188,109.9531 Q676.5156,109.7656 676.4063,109.25 Q676.3594,108.8906 676.1719,108.7031 Q675.8438,108.3281 675.2344,108.1094 Q674.625,107.8906 674,107.8906 Q673.2344,107.8906 672.5938,108.2188 Q671.9688,108.5469 671.4688,109.2969 Q670.9844,110.0469 670.9844,111.0781 L670.9844,112.1719 Q670.9844,113.4063 671.875,114.2344 Q672.7656,115.0469 674.3594,115.0469 Q675.2969,115.0469 675.9531,114.7969 Q676.3438,114.6406 676.7656,114.2031 Q677.0313,113.9375 677.1719,113.8594 Q677.3281,113.7813 677.5313,113.7813 Q677.8594,113.7813 678.1094,114.0469 Q678.375,114.2969 678.375,114.6406 Q678.375,114.9844 678.0313,115.3906 Q677.5313,115.9688 676.7344,116.2969 Q675.6563,116.75 674.3594,116.75 Q672.8438,116.75 671.6406,116.125 Q670.6563,115.625 669.9688,114.5625 Q669.2813,113.4844 669.2813,112.2031 L669.2813,111.0469 Q669.2813,109.7188 669.8906,108.5781 Q670.5156,107.4219 671.6094,106.8125 Q672.7031,106.1875 673.9375,106.1875 Q674.6719,106.1875 675.3125,106.3594 Q675.9688,106.5156 676.5156,106.875 Z " fill="#000000"/><text fill="#000000" font-family="Verdana" font-size="14" lengthAdjust="spacing" textLength="106" x="691.25" y="116.5679">logMotDePasse</text><line style="stroke:#000000;stroke-width:1.0;" x1="618.5" x2="842.5" y1="125" y2="125"/><text fill="#000000" font-family="Verdana" font-size="14" lengthAdjust="spacing" textLength="214" x="623.5" y="143.0752">dateLogMotDePasse: datetime</text><line style="stroke:#000000;stroke-width:1.0;" x1="618.5" x2="842.5" y1="150.0146" y2="150.0146"/><text fill="#000000" font-family="Verdana" font-size="14" lengthAdjust="spacing" textLength="136" x="623.5" y="168.0898">hash: varchar(120)</text><text fill="#000000" font-family="Verdana" font-size="14" lengthAdjust="spacing" textLength="194" x="623.5" y="185.1045">nomUtilisateur: varchar(20)</text></g><!--class utilisateur--><g id="elem_utilisateur"><rect codeLine="32" fill="#FFFFFF" height="112.0586" id="utilisateur" rx="2.5" ry="2.5" style="stroke:#000000;stroke-width:1.0;" width="206" x="501.5" y="337"/><ellipse cx="566.25" cy="351" fill="#FFFFFF" rx="9" ry="9" style="stroke:#000000;stroke-width:1.0;"/><path d="M569.0156,346.875 Q569.1719,346.6563 569.3594,346.5469 Q569.5469,346.4375 569.7656,346.4375 Q570.1406,346.4375 570.375,346.7031 Q570.6094,346.9531 570.6094,347.5625 L570.6094,349.0156 Q570.6094,349.625 570.375,349.8906 Q570.1406,350.1563 569.7656,350.1563 Q569.4219,350.1563 569.2188,349.9531 Q569.0156,349.7656 568.9063,349.25 Q568.8594,348.8906 568.6719,348.7031 Q568.3438,348.3281 567.7344,348.1094 Q567.125,347.8906 566.5,347.8906 Q565.7344,347.8906 565.0938,348.2188 Q564.4688,348.5469 563.9688,349.2969 Q563.4844,350.0469 563.4844,351.0781 L563.4844,352.1719 Q563.4844,353.4063 564.375,354.2344 Q565.2656,355.0469 566.8594,355.0469 Q567.7969,355.0469 568.4531,354.7969 Q568.8438,354.6406 569.2656,354.2031 Q569.5313,353.9375 569.6719,353.8594 Q569.8281,353.7813 570.0313,353.7813 Q570.3594,353.7813 570.6094,354.0469 Q570.875,354.2969 570.875,354.6406 Q570.875,354.9844 570.5313,355.3906 Q570.0313,355.9688 569.2344,356.2969 Q568.1563,356.75 566.8594,356.75 Q565.3438,356.75 564.1406,356.125 Q563.1563,355.625 562.4688,354.5625 Q561.7813,353.4844 561.7813,352.2031 L561.7813,351.0469 Q561.7813,349.7188 562.3906,348.5781 Q563.0156,347.4219 564.1094,346.8125 Q565.2031,346.1875 566.4375,346.1875 Q567.1719,346.1875 567.8125,346.3594 Q568.4688,346.5156 569.0156,346.875 Z " fill="#000000"/><text fill="#000000" font-family="Verdana" font-size="14" lengthAdjust="spacing" textLength="69" x="583.75" y="356.5679">utilisateur</text><line style="stroke:#000000;stroke-width:1.0;" x1="502.5" x2="706.5" y1="365" y2="365"/><line style="stroke:#000000;stroke-width:1.0;" x1="502.5" x2="706.5" y1="373" y2="373"/><text fill="#000000" font-family="Verdana" font-size="14" lengthAdjust="spacing" textLength="136" x="507.5" y="391.0752">hash: varchar(120)</text><text fill="#000000" font-family="Verdana" font-size="14" lengthAdjust="spacing" textLength="194" x="507.5" y="408.0898">typeUtilisateur: varchar(20)</text><text fill="#000000" font-family="Verdana" font-size="14" lengthAdjust="spacing" textLength="151" x="507.5" y="425.1045">themeBool: tinyint(1)</text><text fill="#000000" font-family="Verdana" font-size="14" lengthAdjust="spacing" textLength="194" x="507.5" y="442.1191">nomUtilisateur: varchar(20)</text></g><!--link logAction to utilisateur--><g id="link_logAction_utilisateur"><path codeLine="39" d="M542,200.58 C542,200.58 542,316.7 542,316.7 " fill="none" id="logAction-to-utilisateur" style="stroke:#595959;stroke-width:1.0;"/><polygon fill="none" points="549,316.7,542,336.7,535,316.7,549,316.7" style="stroke:#595959;stroke-width:1.0;"/><text fill="#000000" font-family="Verdana" font-size="13" lengthAdjust="spacing" textLength="93" x="448" y="255.7098">nomUtilisateur</text></g><!--link logMotDePasse to utilisateur--><g id="link_logMotDePasse_utilisateur"><path codeLine="40" d="M662.5,192.12 C662.5,192.12 662.5,316.85 662.5,316.85 " fill="none" id="logMotDePasse-to-utilisateur" style="stroke:#595959;stroke-width:1.0;"/><polygon fill="none" points="669.5,316.85,662.5,336.85,655.5,316.85,669.5,316.85" style="stroke:#595959;stroke-width:1.0;"/><text fill="#000000" font-family="Verdana" font-size="13" lengthAdjust="spacing" textLength="93" x="568.5" y="251.5498">nomUtilisateur</text></g><!--SRC=[dPDDIyD048Rl-HLZlRHWeRMcOcyL1GyMYkX95AR9O1PtTyBkf5Z4_sw-80rjuaVsihlli_FEpcHF9253a6fKDX1EGHWsBC86OkKe4iKsyE_AfkZGW5QMP9SIi9E4Wo3Iw3sGu4Ohx_D8Lk0p003BvY6ZstrX0LjqKO9kE9-CIYOpvBWRcrPOn36jsGlgJZ0imQtI-bUMZwGfJTXsmUSLJ0QLxhAicSpzH1Jftz47pdEzKIzRMjYZNVHeioFQXbsSkNnRbDqfAyFfg6v8Hw9XdkTNtKdDRykovrKNiPmtw6nItGdZ5KO7zOfHQ5cVAEQY3DNMJw9ovtmlS-rZUyOhbXjQvmkgp1FqoM4vYy3t-_3VlR86w7Cg_lFEM8LUl9nhPdsar3qv14sDos_yV1fU5UEiV8GlurTePGYmW44xv21eb-jVCRu1]--></g></svg>