<?xml version="1.0" encoding="UTF-8" standalone="no"?><svg xmlns="http://www.w3.org/2000/svg" xmlns:xlink="http://www.w3.org/1999/xlink" contentStyleType="text/css" height="640px" preserveAspectRatio="none" style="width:1094px;height:640px;background:#FFFFFF;" version="1.1" viewBox="0 0 1094 640" width="1094px" zoomAndPan="magnify"><defs/><g><!--entity Admin--><g id="elem_Admin"><ellipse cx="342.5" cy="14" fill="#F1F1F1" rx="8" ry="8" style="stroke:#181818;stroke-width:0.5;"/><path d="M342.5,22 L342.5,49 M329.5,30 L355.5,30 M342.5,49 L329.5,64 M342.5,49 L355.5,64 " fill="none" style="stroke:#181818;stroke-width:0.5;"/><text fill="#000000" font-family="sans-serif" font-size="14" lengthAdjust="spacing" textLength="39" x="323" y="80.6074">Admin</text></g><!--entity User--><g id="elem_User"><ellipse cx="554.5" cy="14" fill="#F1F1F1" rx="8" ry="8" style="stroke:#181818;stroke-width:0.5;"/><path d="M554.5,22 L554.5,49 M541.5,30 L567.5,30 M554.5,49 L541.5,64 M554.5,49 L567.5,64 " fill="none" style="stroke:#181818;stroke-width:0.5;"/><text fill="#000000" font-family="sans-serif" font-size="14" lengthAdjust="spacing" textLength="69" x="520" y="80.6074">Utilissateur</text></g><g id="elem_create"><ellipse cx="137.7135" cy="391.2427" fill="#F1F1F1" rx="131.7135" ry="28.7427" style="stroke:#181818;stroke-width:0.5;"/><text fill="#000000" font-family="sans-serif" font-size="14" lengthAdjust="spacing" textLength="228" x="23.7135" y="395.0396">Crée un compte utilisateur ou admin</text></g><g id="elem_login"><ellipse cx="587.4929" cy="617.9338" fill="#F1F1F1" rx="59.9929" ry="16.4338" style="stroke:#181818;stroke-width:0.5;"/><text fill="#000000" font-family="sans-serif" font-size="14" lengthAdjust="spacing" textLength="67" x="550.9929" y="622.7375">Connexion</text></g><g id="elem_import"><ellipse cx="492.2971" cy="280.4594" fill="#F1F1F1" rx="97.7971" ry="21.9594" style="stroke:#181818;stroke-width:0.5;"/><text fill="#000000" font-family="sans-serif" font-size="14" lengthAdjust="spacing" textLength="153" x="414.019" y="284.8865">importer des information</text></g><g id="elem_carteP"><ellipse cx="913.5435" cy="171.6087" fill="#F1F1F1" rx="111.0435" ry="24.6087" style="stroke:#181818;stroke-width:0.5;"/><text fill="#000000" font-family="sans-serif" font-size="14" lengthAdjust="spacing" textLength="183" x="822.0435" y="175.4056">imprimer des carte provisoire</text></g><g id="elem_carteS"><ellipse cx="298.6665" cy="171.3333" fill="#F1F1F1" rx="114.6665" ry="25.3333" style="stroke:#181818;stroke-width:0.5;"/><text fill="#000000" font-family="sans-serif" font-size="14" lengthAdjust="spacing" textLength="191" x="203.1665" y="175.1302">imprimer des carte par section</text></g><g id="elem_carteLs"><ellipse cx="643.328" cy="171.6656" fill="#F1F1F1" rx="123.828" ry="27.1656" style="stroke:#181818;stroke-width:0.5;"/><text fill="#000000" font-family="sans-serif" font-size="14" lengthAdjust="spacing" textLength="211" x="537.828" y="175.4625">imprimer des carte par liste perso</text></g><!--link Admin to User--><g id="link_Admin_User"><path d="M362.38,45 C413.16,45 463.95,45 514.74,45 " fill="none" id="Admin-to-User" style="stroke:#181818;stroke-width:1.0;"/><polygon fill="#181818" points="519.98,45,510.98,41,514.98,45,510.98,49,519.98,45" style="stroke:#181818;stroke-width:1.0;"/></g><!--link create to login--><g id="link_create_login"><path d="M160.01,419.18 C189.36,452.86 243.9,509.67 302.5,541.5 C374.91,580.83 468.94,600.55 528.78,609.77 " fill="none" id="create-to-login" style="stroke:#181818;stroke-width:2.0;"/><polygon fill="#181818" points="533.74,610.52,525.4494,605.2034,528.7976,609.7629,524.2381,613.1112,533.74,610.52" style="stroke:#181818;stroke-width:2.0;"/></g><!--link User to login--><g id="link_User_login"><path d="M589.01,48.3 C689.07,55.67 976.45,81.95 1042.5,144.5 C1087.51,187.12 1077.5,217.52 1077.5,279.5 C1077.5,279.5 1077.5,279.5 1077.5,480.5 C1077.5,568.23 782.32,602.01 650.17,612.73 " fill="none" id="User-to-login" style="stroke:#181818;stroke-width:1.0;"/><polygon fill="#181818" points="645.15,613.13,654.4411,616.3974,650.134,612.7301,653.8013,608.4231,645.15,613.13" style="stroke:#181818;stroke-width:1.0;"/></g><!--link Admin to create--><g id="link_Admin_create"><path d="M322.88,50.67 C285.43,60.72 204.14,88.16 166.5,144.5 C122.93,209.7 126.78,306.9 132.56,357.2 " fill="none" id="Admin-to-create" style="stroke:#181818;stroke-width:1.0;"/><polygon fill="#181818" points="133.16,362.21,136.0496,352.7946,132.5592,357.2462,128.1075,353.7559,133.16,362.21" style="stroke:#181818;stroke-width:1.0;"/></g><!--link User to import--><g id="link_User_import"><path d="M529.33,84.68 C519.18,102.23 508.48,123.68 502.5,144.5 C491.97,181.13 490.77,225.54 491.3,253.16 " fill="none" id="User-to-import" style="stroke:#181818;stroke-width:1.0;"/><polygon fill="#181818" points="491.43,258.45,495.1973,249.3502,491.3015,253.4517,487.2,249.5558,491.43,258.45" style="stroke:#181818;stroke-width:1.0;"/></g><!--link User to carteLs--><g id="link_User_carteLs"><path d="M582.17,84.71 C594.97,102.61 609.94,123.55 621.89,140.27 " fill="none" id="User-to-carteLs" style="stroke:#181818;stroke-width:1.0;"/><polygon fill="#181818" points="624.86,144.42,622.8742,134.7734,621.9498,140.3542,616.369,139.4298,624.86,144.42" style="stroke:#181818;stroke-width:1.0;"/></g><!--link User to carteP--><g id="link_User_carteP"><path d="M589.25,58.05 C649.69,79.01 774.95,122.45 850.87,148.78 " fill="none" id="User-to-carteP" style="stroke:#181818;stroke-width:1.0;"/><polygon fill="#181818" points="855.8,150.49,848.6176,143.7511,851.0785,148.8446,845.985,151.3055,855.8,150.49" style="stroke:#181818;stroke-width:1.0;"/></g><!--link User to carteS--><g id="link_User_carteS"><path d="M519.97,62.79 C475.99,84.18 399.63,121.32 349.08,145.9 " fill="none" id="User-to-carteS" style="stroke:#181818;stroke-width:1.0;"/><polygon fill="#181818" points="344.57,148.09,354.4132,147.7559,349.0675,145.9055,350.918,140.5598,344.57,148.09" style="stroke:#181818;stroke-width:1.0;"/></g><!--link import to login--><g id="link_import_login"><path d="M498.44,302.49 C515.52,362.78 564.58,536.04 581.6,596.16 " fill="none" id="import-to-login" style="stroke:#181818;stroke-width:2.0;"/><polygon fill="#181818" points="583.05,601.28,584.458,591.5323,581.6934,596.4676,576.7581,593.7029,583.05,601.28" style="stroke:#181818;stroke-width:2.0;"/></g><!--link carteLs to login--><g id="link_carteLs_login"><path d="M643.5,198.61 C643.5,239.45 643.5,320.9 643.5,390 C643.5,390 643.5,390 643.5,480.5 C643.5,524.81 617.93,571.57 601.34,597.23 " fill="none" id="carteLs-to-login" style="stroke:#181818;stroke-width:2.0;"/><polygon fill="#181818" points="598.56,601.47,606.8385,596.1346,601.3005,597.2879,600.1472,591.7499,598.56,601.47" style="stroke:#181818;stroke-width:2.0;"/></g><!--link carteP to login--><g id="link_carteP_login"><path d="M894.88,195.7 C866.2,233.84 814.5,313.25 814.5,390 C814.5,390 814.5,390 814.5,480.5 C814.5,559.94 711.13,594.32 643.9,608.29 " fill="none" id="carteP-to-login" style="stroke:#181818;stroke-width:2.0;"/><polygon fill="#181818" points="638.73,609.34,648.3421,611.4865,643.6318,608.3539,646.7644,603.6436,638.73,609.34" style="stroke:#181818;stroke-width:2.0;"/></g><!--link carteS to login--><g id="link_carteS_login"><path d="M304.14,197.14 C312.83,237.3 328.5,319.48 328.5,390 C328.5,390 328.5,390 328.5,480.5 C328.5,569.53 449.74,600.63 526.32,611.39 " fill="none" id="carteS-to-login" style="stroke:#181818;stroke-width:2.0;"/><polygon fill="#181818" points="531.3,612.07,522.9183,606.8982,526.3452,611.3989,521.8446,614.8258,531.3,612.07" style="stroke:#181818;stroke-width:2.0;"/></g><!--link carteLs to import--><g id="link_carteLs_import"><path d="M608.1,197.59 C583.05,215.34 549.7,238.97 525.26,256.28 " fill="none" id="carteLs-to-import" style="stroke:#181818;stroke-width:2.0;"/><polygon fill="#181818" points="521.11,259.22,530.7657,257.2791,525.1893,256.3287,526.1397,250.7523,521.11,259.22" style="stroke:#181818;stroke-width:2.0;"/></g><!--link carteP to import--><g id="link_carteP_import"><path d="M842.56,190.53 C763.91,210.52 637.95,242.53 560.5,262.22 " fill="none" id="carteP-to-import" style="stroke:#181818;stroke-width:2.0;"/><polygon fill="#181818" points="555.47,263.5,565.1818,265.1372,560.3131,262.2571,563.1932,257.3883,555.47,263.5" style="stroke:#181818;stroke-width:2.0;"/></g><!--link carteS to import--><g id="link_carteS_import"><path d="M340.12,195.45 C373.23,213.71 419.28,239.12 452.07,257.2 " fill="none" id="carteS-to-import" style="stroke:#181818;stroke-width:2.0;"/><polygon fill="#181818" points="456.81,259.82,450.8655,251.9674,452.4332,257.4027,446.9979,258.9704,456.81,259.82" style="stroke:#181818;stroke-width:2.0;"/></g><!--SRC=[TP1BQWCn38RtFeMMwI8N6CX0wJQBWI47C1Er269ha3oXL-evUh7wEIacyKhwzFzwU7Y_El83M8KScU4Iw4QgDk0ccLyKnPXSXUDOqyE7_FuWR1uMTck8KRPb5_06DidVadqHZ3Gvs7ly9YxunbzncYbLE8qLfEvmBA-nVVJUYjpA4gBoYWhaFrcS3QrpAMQHaAkYnKOzhC9tKYR1ibg2qtEb5L1SzgQPpY-byVGKeIW_v6UjvunjfthTsDKRcBfyDiNt-9xgwy3KvVCJmsbVebawClydVm00]--></g></svg>