<?xml version="1.0" encoding="UTF-8" standalone="no"?><svg xmlns="http://www.w3.org/2000/svg" xmlns:xlink="http://www.w3.org/1999/xlink" contentStyleType="text/css" height="640px" preserveAspectRatio="none" style="width:1094px;height:640px;background:#FFFFFF;" version="1.1" viewBox="0 0 1094 640" width="1094px" zoomAndPan="magnify"><defs/><g><!--entity Admin--><g id="elem_Admin"><ellipse cx="342.5" cy="14" fill="#F1F1F1" rx="8" ry="8" style="stroke:#181818;stroke-width:0.5;"/><path d="M342.5,22 L342.5,49 M329.5,30 L355.5,30 M342.5,49 L329.5,64 M342.5,49 L355.5,64 " fill="none" style="stroke:#181818;stroke-width:0.5;"/><text fill="#000000" font-family="sans-serif" font-size="14" lengthAdjust="spacing" textLength="39" x="323" y="80.6074">Admin</text></g><!--entity User--><g id="elem_User"><ellipse cx="554.5" cy="14" fill="#F1F1F1" rx="8" ry="8" style="stroke:#181818;stroke-width:0.5;"/><path d="M554.5,22 L554.5,49 M541.5,30 L567.5,30 M554.5,49 L541.5,64 M554.5,49 L567.5,64 " fill="none" style="stroke:#181818;stroke-width:0.5;"/><text fill="#000000" font-family="sans-serif" font-size="14" lengthAdjust="spacing" textLength="69" x="520" y="80.6074">Utilissateur</text></g><g id="elem_create"><ellipse cx="137.7135" cy="391.2427" fill="#F1F1F1" rx="131.7135" ry="28.7427" style="stroke:#181818;stroke-width:0.5;"/><text fill="#000000" font-family="sans-serif" font-size="14" lengthAdjust="spacing" textLength="228" x="23.7135" y="395.0396">Crée un compte utilisateur ou admin</text></g><g id="elem_login"><ellipse cx="587.4929" cy="617.9338" fill="#F1F1F1" rx="59.9929" ry="16.4338" style="stroke:#181818;stroke-width:0.5;"/><text fill="#000000" font-family="sans-serif" font-size="14" lengthAdjust="spacing" textLength="67" x="550.9929" y="622.7375">Connexion</text></g><g id="elem_import"><ellipse cx="492.2971" cy="280.4594" fill="#F1F1F1" rx="97.7971" ry="21.9594" style="stroke:#181818;stroke-width:0.5;"/><text fill="#000000" font-family="sans-serif" font-size="14" lengthAdjust="spacing" textLength="153" x="414.019" y="284.8865">importer des information</text></g><g id="elem_carteP"><ellipse cx="913.5435" cy="171.6087" fill="#F1F1F1" rx="111.0435" ry="24.6087" style="stroke:#181818;stroke-width:0.5;"/><text fill="#000000" font-family="sans-serif" font-size="14" lengthAdjust="spacing" textLength="183" x="822.0435" y="175.4056">imprimer des carte provisoire</text></g><g id="elem_carteS"><ellipse cx="298.6665" cy="171.3333" fill="#F1F1F1" rx="114.6665" ry="25.3333" style="stroke:#181818;stroke-width:0.5;"/><text fill="#000000" font-family="sans-serif" font-size="14" lengthAdjust="spacing" textLength="191" x="203.1665" y="175.1302">imprimer des carte par section</text></g><g id="elem_carteLs"><ellipse cx="643.328" cy="171.6656" fill="#F1F1F1" rx="123.828" ry="27.1656" style="stroke:#181818;stroke-width:0.5;"/><text fill="#000000" font-family="sans-serif" font-size="14" lengthAdjust="spacing" textLength="211" x="537.828" y="175.4625">imprimer des carte par liste perso</text></g><!--link Admin to User--><g id="link_Admin_User"><path d="M362.38,45 C413.16,45 463.95,45 514.74,45 " fill="none" id="Admin-to-User" style="stroke:#181818;stroke-width:1.0;"/><polygon fill="#181818" points="519.98,45,510.98,41,514.98,45,510.98,49,519.98,45" style="stroke:#181818;stroke-width:1.0;"/></g><!--link create to login--><g id="link_create_login"><path d="M160.01,419.18 C189.36,452.86 243.9,509.67 302.5,541.5 C371.71,579.09 460.68,598.77 520.65,608.49 " fill="none" id="create-to-login" style="stroke:#181818;stroke-width:1.0;"/><polygon fill="none" points="533.74,610.52,528.427,605.6444,521.8829,608.6735,527.196,613.5491,533.74,610.52" style="stroke:#181818;stroke-width:1.0;"/></g><!--link User to login--><g id="link_User_login"><path d="M589.01,48.3 C689.07,55.67 976.45,81.95 1042.5,144.5 C1087.51,187.12 1077.5,217.52 1077.5,279.5 C1077.5,279.5 1077.5,279.5 1077.5,480.5 C1077.5,568.23 782.32,602.01 650.17,612.73 " fill="none" id="User-to-login" style="stroke:#181818;stroke-width:1.0;"/><polygon fill="#181818" points="645.15,613.13,654.4411,616.3974,650.134,612.7301,653.8013,608.4231,645.15,613.13" style="stroke:#181818;stroke-width:1.0;"/></g><!--link Admin to create--><g id="link_Admin_create"><path d="M322.88,50.67 C285.43,60.72 204.14,88.16 166.5,144.5 C122.93,209.7 126.78,306.9 132.56,357.2 " fill="none" id="Admin-to-create" style="stroke:#181818;stroke-width:1.0;"/><polygon fill="#181818" points="133.16,362.21,136.0496,352.7946,132.5592,357.2462,128.1075,353.7559,133.16,362.21" style="stroke:#181818;stroke-width:1.0;"/></g><!--link User to import--><g id="link_User_import"><path d="M529.33,84.68 C519.18,102.23 508.48,123.68 502.5,144.5 C491.97,181.13 490.77,225.54 491.3,253.16 " fill="none" id="User-to-import" style="stroke:#181818;stroke-width:1.0;"/><polygon fill="#181818" points="491.43,258.45,495.1973,249.3502,491.3015,253.4517,487.2,249.5558,491.43,258.45" style="stroke:#181818;stroke-width:1.0;"/></g><!--link User to carteLs--><g id="link_User_carteLs"><path d="M582.17,84.71 C594.97,102.61 609.94,123.55 621.89,140.27 " fill="none" id="User-to-carteLs" style="stroke:#181818;stroke-width:1.0;"/><polygon fill="#181818" points="624.86,144.42,622.8742,134.7734,621.9498,140.3542,616.369,139.4298,624.86,144.42" style="stroke:#181818;stroke-width:1.0;"/></g><!--link User to carteP--><g id="link_User_carteP"><path d="M589.25,58.05 C649.69,79.01 774.95,122.45 850.87,148.78 " fill="none" id="User-to-carteP" style="stroke:#181818;stroke-width:1.0;"/><polygon fill="#181818" points="855.8,150.49,848.6176,143.7511,851.0785,148.8446,845.985,151.3055,855.8,150.49" style="stroke:#181818;stroke-width:1.0;"/></g><!--link User to carteS--><g id="link_User_carteS"><path d="M519.97,62.79 C475.99,84.18 399.63,121.32 349.08,145.9 " fill="none" id="User-to-carteS" style="stroke:#181818;stroke-width:1.0;"/><polygon fill="#181818" points="344.57,148.09,354.4132,147.7559,349.0675,145.9055,350.918,140.5598,344.57,148.09" style="stroke:#181818;stroke-width:1.0;"/></g><!--link import to login--><g id="link_import_login"><path d="M498.44,302.49 C514.83,360.36 560.68,522.28 579.39,588.36 " fill="none" id="import-to-login" style="stroke:#181818;stroke-width:1.0;"/><polygon fill="none" points="583.05,601.28,585.2643,594.4173,579.7812,589.7338,577.5669,596.5965,583.05,601.28" style="stroke:#181818;stroke-width:1.0;"/></g><!--link carteLs to login--><g id="link_carteLs_login"><path d="M643.5,198.61 C643.5,239.45 643.5,320.9 643.5,390 C643.5,390 643.5,390 643.5,480.5 C643.5,521.15 621.98,563.86 605.62,590.45 " fill="none" id="carteLs-to-login" style="stroke:#181818;stroke-width:1.0;"/><polygon fill="none" points="598.56,601.47,605.161,598.5672,605.0204,591.3575,598.4194,594.2603,598.56,601.47" style="stroke:#181818;stroke-width:1.0;"/></g><!--link carteP to login--><g id="link_carteP_login"><path d="M894.88,195.7 C866.2,233.84 814.5,313.25 814.5,390 C814.5,390 814.5,390 814.5,480.5 C814.5,556.92 718.86,591.64 651.73,606.6 " fill="none" id="carteP-to-login" style="stroke:#181818;stroke-width:1.0;"/><polygon fill="none" points="638.73,609.34,645.4243,612.0208,650.4736,606.8725,643.7793,604.1917,638.73,609.34" style="stroke:#181818;stroke-width:1.0;"/></g><!--link carteS to login--><g id="link_carteS_login"><path d="M304.14,197.14 C312.83,237.3 328.5,319.48 328.5,390 C328.5,390 328.5,390 328.5,480.5 C328.5,566.51 441.66,598.45 518.38,610.23 " fill="none" id="carteS-to-login" style="stroke:#181818;stroke-width:1.0;"/><polygon fill="none" points="531.3,612.07,525.9275,607.26,519.4211,610.3693,524.7937,615.1792,531.3,612.07" style="stroke:#181818;stroke-width:1.0;"/></g><!--link carteLs to import--><g id="link_carteLs_import"><path d="M608.1,197.59 C585.22,213.8 555.42,234.91 531.81,251.64 " fill="none" id="carteLs-to-import" style="stroke:#181818;stroke-width:1.0;"/><polygon fill="none" points="521.11,259.22,528.3181,259.0133,530.8997,252.2801,523.6916,252.4868,521.11,259.22" style="stroke:#181818;stroke-width:1.0;"/></g><!--link carteP to import--><g id="link_carteP_import"><path d="M842.56,190.53 C766.58,209.84 646.44,240.38 568.55,260.17 " fill="none" id="carteP-to-import" style="stroke:#181818;stroke-width:1.0;"/><polygon fill="none" points="555.47,263.5,562.27,265.9,567.1008,260.5462,560.3008,258.1462,555.47,263.5" style="stroke:#181818;stroke-width:1.0;"/></g><!--link carteS to import--><g id="link_carteS_import"><path d="M340.12,195.45 C370.92,212.44 412.93,235.61 445.03,253.32 " fill="none" id="carteS-to-import" style="stroke:#181818;stroke-width:1.0;"/><polygon fill="none" points="456.81,259.82,453.4905,253.4183,446.3046,254.0203,449.6241,260.4219,456.81,259.82" style="stroke:#181818;stroke-width:1.0;"/></g><!--SRC=[TP0xRiCm38PtdO9ZC_W27WmKMJiOC780mMO20f5ea7BHA-KSkLZribC8gIRou__peVvpSUHxi0evClqbq9rKRS1DChyeYZ6v2jrGqu-pF1y8cuUPtHfYb6tP1Ro1JV9Jii-2aIO7Uuy_n0NV-HQdcLA5ZYj8tQ4hRwZi67sq8hUoXAXSK87ybSNPi7SknImISbKqswY7LVYRb4cmh9RW-5vf1HJdesccqx_IU7gAK9HVyY-jvmpxJlMweQdlO6pooHJVwtkghm5Zaqzl397K9NPBGwQ_1EBx1G00]--></g></svg>